<svg width="203" height="141" viewBox="0 0 203 141" fill="none" xmlns="http://www.w3.org/2000/svg">
<path d="M2 105.49C7.19108 105.018 11.9945 100.48 16.0812 97.8972C56.9923 72.0413 100.418 52.0053 144.262 31.7017C162.423 23.2914 214.409 -6.66531 197.756 4.43656C182.68 14.4873 169.398 28.0814 155.099 39.2254C131.158 57.8826 106.556 75.8243 83.5881 95.6883C72.6966 105.108 62.2057 114.964 51.9744 125.093C48.1042 128.925 42.4224 133.444 39.826 138.484C39.2296 139.642 42.1783 137.293 43.1392 136.413C52.8654 127.515 62.6084 118.737 73.1653 110.805C101.105 89.8107 132.436 74.5821 165.452 63.3844C165.819 63.2601 188.797 54.715 181.743 60.8995C167.488 73.3967 150.808 82.3423 135.288 93.0654C129.73 96.9058 109.62 108.608 108.852 116.672C108.601 119.303 138.558 102.999 139.706 102.384C155.72 93.8086 172.772 85.6802 190.854 82.7115C206.055 80.2158 187.105 91.4712 183.261 94.1698C169.034 104.158 148.693 114.188 138.601 128.821C131.116 139.675 161.307 115.378 172.217 107.975" stroke="#2B2433" stroke-width="3" stroke-linecap="round"/>
</svg>
