<svg width="311" height="126" viewBox="0 0 311 126" fill="none" xmlns="http://www.w3.org/2000/svg">
<path d="M14.7233 2C11.1273 9.19194 -5.39362 31.3483 5.88057 38.1934C10.2606 40.8527 21.4732 35.4447 25.9309 34.389C41.4627 30.7104 56.3538 20.0521 72.7149 21.1249C114.118 23.8399 54.2808 90.6955 96.1583 97.8302C122.053 102.242 148.106 88.2329 172.247 81.0702C178.194 79.3056 200.611 71.0026 206.178 78.0883C214.226 88.331 209.498 105.861 222.115 114.693C233.983 123 250.013 115.262 262.73 114.899C271.882 114.637 275.395 120.501 284.014 123.124C293.739 126.084 299.996 120.451 309 120.451" stroke="#EB74A3" stroke-width="3" stroke-linecap="round"/>
</svg>
