<svg width="62" height="130" viewBox="0 0 62 130" fill="none" xmlns="http://www.w3.org/2000/svg">
<path fill-rule="evenodd" clip-rule="evenodd" d="M47.9597 129.542C47.3592 129.475 46.9267 128.934 46.9937 128.334C47.2779 125.786 48.4966 121.129 49.2332 118.797C49.8121 116.965 50.1055 115.041 50.3809 113.052C50.4048 112.879 50.4287 112.705 50.4526 112.531C50.6993 110.734 50.9538 108.879 51.427 107.125C52.8574 101.822 51.8823 95.3549 49.1614 89.6196C49.0594 89.4048 48.9552 89.1913 48.8487 88.9791C47.7034 90.71 46.4347 92.3176 45.0384 93.5367C43.2759 95.0754 41.1951 96.0898 38.8438 95.7845C37.5794 95.6203 36.2348 95.7079 34.7943 95.8855C34.2704 95.9502 33.7134 96.0301 33.1436 96.1118C32.2181 96.2446 31.259 96.3823 30.3531 96.4669C27.3159 96.7506 24.0875 96.5431 21.302 93.8612C19.8554 92.4684 18.0986 90.3919 16.9074 88.0869C15.7304 85.8093 14.9992 83.0941 15.9878 80.576C17.694 76.2302 21.6371 74.1569 25.7744 73.4918C29.9021 72.8282 34.4224 73.5182 37.7158 74.8849C42.2074 76.7487 46.0482 80.3402 48.8915 84.6761C49.7912 83.0641 50.62 81.4224 51.3832 79.9077L51.4568 79.7617C52.4572 77.7758 53.3787 75.9468 54.1768 74.8266C63.1608 62.2182 58.6019 46.6828 48.6444 35.6239C44.8912 31.4555 40.5958 29.8561 35.1862 28.0311C32.8698 27.2497 30.6093 26.2475 28.4107 25.2729C28.1177 25.143 27.8258 25.0136 27.535 24.8852C25.0394 23.7838 22.6136 22.7556 20.1444 22.0817C9.55565 19.192 4.52194 10.7335 0.507198 1.52878C0.26563 0.974936 0.518777 0.330126 1.07262 0.0885609C1.62646 -0.153005 2.27127 0.100148 2.51284 0.653984C6.49146 9.77586 11.1704 17.3645 20.7205 19.9708C23.3642 20.6923 25.9237 21.7824 28.4185 22.8834C28.7132 23.0135 29.0069 23.1436 29.2997 23.2734C31.5087 24.2524 33.6716 25.2109 35.8856 25.9578C41.2974 27.7835 46.0985 29.5263 50.2705 34.1597C60.5746 45.6036 65.7895 62.2997 55.9588 76.0964C55.2632 77.0727 54.4052 78.7727 53.3373 80.8923C52.4139 82.7248 51.3601 84.8138 50.1853 86.8231C50.5221 87.4329 50.8401 88.0532 51.1383 88.6817C54.0193 94.7543 55.1396 101.763 53.5396 107.695C53.1047 109.307 52.8687 111.023 52.6178 112.848C52.5948 113.016 52.5717 113.184 52.5483 113.353C52.2736 115.336 51.9605 117.428 51.3197 119.456C50.5948 121.75 49.4284 126.245 49.1683 128.576C49.1013 129.177 48.5602 129.609 47.9597 129.542ZM47.6452 86.8008C44.9376 82.3303 41.1824 78.6924 36.8772 76.9059C33.9332 75.6842 29.8226 75.0572 26.1217 75.6522C22.4305 76.2456 19.3472 78.0067 18.0246 81.3756C17.3776 83.0236 17.7859 85.0209 18.8513 87.0823C19.9024 89.1163 21.4907 91.0054 22.8197 92.2849C24.9213 94.3084 27.3494 94.5498 30.1496 94.2883C31.0228 94.2067 31.8622 94.0855 32.7312 93.96C33.3103 93.8763 33.9025 93.7908 34.5266 93.7139C36.0217 93.5295 37.5845 93.4145 39.1256 93.6146C40.6223 93.8089 42.0976 93.1994 43.5993 91.8884C45.0313 90.6382 46.3823 88.8367 47.6452 86.8008Z" fill="#EB74A3"/>
</svg>
