<svg width="47" height="115" viewBox="0 0 47 115" fill="none" xmlns="http://www.w3.org/2000/svg">
<path fill-rule="evenodd" clip-rule="evenodd" d="M46.2517 78.0647C46.3154 83.473 44.8579 89.3147 43.3232 92.4194C41.3323 96.4467 37.9201 99.8122 34.6445 103.043C34.478 103.207 34.3119 103.371 34.1463 103.535C30.672 106.967 27.4399 110.279 25.8673 114.228C25.7056 114.635 25.2451 114.833 24.8388 114.671C24.4326 114.509 24.2344 114.049 24.3961 113.642C26.1112 109.335 29.5992 105.801 33.0334 102.408C33.1768 102.266 33.3202 102.125 33.4633 101.984C36.799 98.6919 40.0345 95.4988 41.9036 91.7176C43.3185 88.8555 44.7293 83.2637 44.6683 78.0833C44.6379 75.498 44.2409 73.0817 43.3458 71.1812C42.4608 69.3019 41.1026 67.9469 39.1093 67.3754C37.3789 66.8792 35.7687 66.4891 34.234 66.2168C33.8831 69.1907 32.9652 72.2435 32.0233 75.3759C31.7544 76.2703 31.4835 77.1711 31.2234 78.0784C30.414 80.901 28.935 84.0726 26.7526 86.3112C24.542 88.5786 21.5625 89.9199 17.9041 88.8709C17.6077 88.7859 17.3004 88.7035 16.988 88.6197C15.811 88.3042 14.5609 87.9691 13.5424 87.4003C12.8699 87.0248 12.2576 86.531 11.7833 85.8441C11.3085 85.1564 11.0002 84.3159 10.877 83.2878C10.754 82.2621 10.8578 80.8729 11.1161 79.3777C11.3768 77.8684 11.8048 76.1966 12.3641 74.5862C12.9224 72.9785 13.6195 71.4089 14.4271 70.115C15.2226 68.8405 16.1819 67.7415 17.3025 67.2038C21.2483 65.3105 24.7257 64.3622 28.2822 64.2014C29.7666 64.1342 31.2562 64.2047 32.7898 64.3963C32.9125 61.0335 32.1023 57.7791 29.4587 54.4252C26.2759 50.3873 22.586 46.7887 18.8158 43.178C18.5412 42.915 18.2661 42.6519 17.9908 42.3885C14.4983 39.0481 10.9651 35.6688 7.79854 31.9362C6.50736 30.4143 5.36397 28.1415 4.40299 25.535C3.43692 22.9148 2.6345 19.8998 2.0505 16.8478C1.46643 13.7954 1.0978 10.6903 1.00552 7.88769C0.91366 5.09801 1.09356 2.55571 1.63856 0.655061C1.75909 0.234727 2.19754 -0.00831443 2.61787 0.112214C3.03821 0.232744 3.28125 0.6712 3.16072 1.09153C2.68189 2.76141 2.49855 5.11402 2.58817 7.83558C2.67735 10.5442 3.03489 13.5667 3.60579 16.5502C4.17676 19.534 4.95811 22.4632 5.88873 24.9873C6.82443 27.5252 7.89063 29.597 9.00605 30.9118C12.1168 34.5786 15.5923 37.903 19.0966 41.255C19.368 41.5145 19.6395 41.7743 19.9111 42.0344C23.6775 45.6415 27.4427 49.3096 30.7023 53.4449C33.6539 57.1896 34.5346 60.8789 34.3648 64.632C36.0136 64.9178 37.7255 65.3312 39.5458 65.8532C42.0638 66.5752 43.7406 68.303 44.7784 70.5065C45.8062 72.6889 46.2198 75.3557 46.2517 78.0647ZM32.6678 65.9769C31.1851 65.7879 29.7619 65.7196 28.3537 65.7833C25.0518 65.9326 21.783 66.8103 17.9876 68.6315C17.2712 68.9752 16.5094 69.7696 15.7704 70.9534C15.0436 72.1179 14.3926 73.5717 13.8599 75.1056C13.3282 76.6368 12.9222 78.2251 12.6765 79.6473C12.4283 81.0835 12.3531 82.2974 12.4492 83.0994C12.5467 83.9131 12.7795 84.5 13.0864 84.9444C13.3938 85.3896 13.8038 85.7326 14.3144 86.0177C15.1441 86.4811 16.1353 86.7482 17.2782 87.0561C17.6189 87.1479 17.9731 87.2433 18.3406 87.3487C21.3071 88.1994 23.7096 87.164 25.6187 85.2057C27.556 83.2186 28.9345 80.3156 29.7012 77.642C29.9767 76.6813 30.2578 75.7454 30.5327 74.83C31.4736 71.6973 32.3426 68.8042 32.6678 65.9769Z" fill="#EB74A3"/>
</svg>
