<svg width="256" height="222" viewBox="0 0 256 222" fill="none" xmlns="http://www.w3.org/2000/svg">
<path fill-rule="evenodd" clip-rule="evenodd" d="M217.047 21.9122C201.961 33.9128 183.603 48.5167 173.503 55.5489L171.874 56.6833C119.209 93.3512 67.161 129.589 19.6986 172.766C18.5388 173.821 17.3414 175.05 16.0574 176.367C14.7855 177.673 13.4363 179.057 12.0195 180.365C9.20367 182.965 5.9759 185.405 2.24437 186.418C1.4449 186.636 0.620791 186.163 0.403658 185.364C0.186525 184.565 0.658598 183.74 1.45806 183.523C4.47619 182.704 7.26822 180.669 9.9844 178.161C11.3336 176.915 12.6284 175.588 13.9088 174.274L13.9451 174.237C15.2013 172.947 16.4523 171.664 17.6799 170.547C65.2876 127.238 117.472 90.9046 170.087 54.2717L171.789 53.0869C181.804 46.114 200.084 31.5722 215.202 19.547C216.642 18.401 218.054 17.2778 219.427 16.1863C227.294 9.934 233.906 4.70678 237.338 2.20578C238.189 1.585 238.888 1.10027 239.374 0.80939C239.572 0.691198 239.893 0.505192 240.215 0.41884C240.309 0.393736 240.481 0.354573 240.695 0.359264C240.897 0.363711 241.317 0.412917 241.695 0.74992C242.111 1.12022 242.209 1.59372 242.209 1.89973C242.209 2.17541 242.136 2.38946 242.097 2.49241C241.962 2.8414 241.7 3.16022 241.556 3.33266C241.36 3.56781 241.101 3.85194 240.786 4.18091C240.153 4.84178 239.238 5.74489 238.019 6.90938C229.301 15.2375 221.359 24.6387 213.534 34.2528C211.901 36.2589 210.273 38.2754 208.643 40.2931C202.481 47.9227 196.305 55.5697 189.833 62.74C182.227 71.1662 174.549 79.5223 166.874 87.8748C146.968 109.538 127.084 131.177 108.543 153.955C96.3713 168.909 84.8253 184.349 73.6806 200.097C72.7061 201.474 71.616 202.919 70.5031 204.394C70.3921 204.541 70.2808 204.688 70.1694 204.836C69.0583 206.309 67.9282 207.816 66.8428 209.352C76.1294 197.364 85.6078 185.537 96.0334 174.388C128.192 139.996 166.182 112.481 207.309 89.9313C207.309 89.9313 207.31 89.9308 207.318 89.9263C207.33 89.9191 207.357 89.904 207.404 89.877L207.677 89.7189C207.909 89.5851 208.235 89.3973 208.64 89.1661C209.448 88.7038 210.569 88.0681 211.876 87.343C214.487 85.8952 217.859 84.0819 220.98 82.5807C222.539 81.8305 224.053 81.1498 225.389 80.63C226.692 80.1226 227.937 79.7234 228.917 79.6077C229.382 79.5527 230 79.5324 230.572 79.7638C230.886 79.8909 231.219 80.1078 231.475 80.4597C231.733 80.815 231.84 81.2098 231.857 81.5734C231.887 82.2304 231.629 82.8511 231.366 83.3384C231.081 83.8671 230.669 84.4564 230.147 85.1064C222.118 95.1079 213.086 104.051 203.838 112.696C200.686 115.643 197.515 118.549 194.35 121.451C188.202 127.086 182.074 132.703 176.14 138.563C175.124 139.567 173.729 140.866 172.092 142.39C168.352 145.872 163.349 150.529 158.727 155.518C155.423 159.083 152.393 162.739 150.249 166.138C148.551 168.831 147.511 171.206 147.217 173.163C148.079 172.729 149.23 172.05 150.618 171.158C153.988 168.994 158.496 165.752 163.068 162.343C171.373 156.151 179.791 149.483 181.774 147.913C181.971 147.757 182.105 147.651 182.168 147.601C201.348 132.525 222.152 117.675 245.603 109.452C248.077 108.584 249.996 108.09 251.424 107.954C252.136 107.886 252.817 107.898 253.419 108.053C254.039 108.213 254.672 108.555 255.076 109.203C255.472 109.837 255.5 110.528 255.414 111.089C255.328 111.646 255.112 112.198 254.855 112.709C254.341 113.733 253.514 114.878 252.56 116.038C249.77 119.429 245.281 123.648 242.282 126.468C241.22 127.466 240.345 128.289 239.798 128.837C235.65 132.995 231.001 137.24 226.233 141.584L225.865 141.919C221.205 146.165 216.435 150.51 211.862 155.005C202.46 164.245 194.005 174.009 189.16 184.596C189.046 184.845 188.944 185.075 188.854 185.289C191.142 183.587 194.749 180.165 198.991 175.881C203.32 171.51 208.206 166.351 212.839 161.459L213.698 160.552C218.569 155.409 223.113 150.625 226.314 147.517C226.908 146.94 227.858 146.954 228.435 147.548C229.012 148.143 228.998 149.092 228.404 149.669C225.258 152.724 220.764 157.455 215.876 162.615L215.009 163.53C210.384 168.414 205.476 173.596 201.123 177.992C196.537 182.623 192.444 186.509 189.925 188.207C189.301 188.628 188.651 189.002 188.042 189.178C187.736 189.266 187.312 189.344 186.852 189.251C186.324 189.143 185.851 188.828 185.561 188.324C185.308 187.884 185.264 187.422 185.27 187.08C185.276 186.723 185.342 186.353 185.433 185.992C185.616 185.27 185.956 184.386 186.432 183.348C191.512 172.248 200.29 162.171 209.759 152.865C214.373 148.33 219.179 143.951 223.828 139.716L224.213 139.366C228.99 135.014 233.585 130.817 237.674 126.718C238.326 126.065 239.297 125.152 240.438 124.079C243.429 121.268 247.589 117.358 250.243 114.132C251.15 113.028 251.81 112.087 252.175 111.362C252.263 111.186 252.326 111.038 252.369 110.919C252.209 110.91 251.992 110.913 251.708 110.94C250.645 111.042 248.998 111.441 246.596 112.283C223.643 120.331 203.168 134.91 184.022 149.96C183.961 150.007 183.831 150.111 183.638 150.264C181.676 151.818 173.212 158.523 164.861 164.749C160.279 168.164 155.702 171.458 152.239 173.682C150.522 174.785 149.013 175.668 147.89 176.162C147.364 176.394 146.753 176.619 146.185 176.65C145.9 176.665 145.419 176.645 144.961 176.345C144.422 175.994 144.196 175.448 144.157 174.97C143.901 171.749 145.463 168.103 147.711 164.538C149.998 160.913 153.17 157.102 156.526 153.479C161.223 148.41 166.437 143.554 170.199 140.051C171.783 138.575 173.11 137.34 174.032 136.429C180.004 130.532 186.206 124.846 192.381 119.185C195.536 116.293 198.684 113.408 201.79 110.505C211.004 101.891 219.913 93.0624 227.808 83.2283C227.913 83.0971 228.009 82.9734 228.097 82.8571C227.637 82.9957 227.095 83.1849 226.477 83.4257C225.241 83.9067 223.803 84.5515 222.28 85.2841C216.813 87.9141 210.546 91.5279 209.067 92.381C208.891 92.4825 208.782 92.5449 208.751 92.5619C167.841 114.992 130.123 142.324 98.2247 176.437C86.1778 189.32 75.3875 203.137 64.608 217.162C64.0408 217.9 62.896 219.243 61.9418 220.204C61.5107 220.639 60.9638 221.158 60.4889 221.42C60.3644 221.489 60.1216 221.612 59.811 221.656C59.4708 221.705 58.8176 221.674 58.3414 221.097C57.9535 220.627 57.9615 220.106 57.9722 219.92C57.9859 219.684 58.0415 219.47 58.0906 219.312C59.2887 215.454 61.574 211.661 64.0221 208.148C65.2518 206.384 66.5403 204.666 67.7742 203.03C67.8847 202.883 67.9947 202.737 68.1042 202.592C69.2233 201.109 70.2853 199.702 71.2317 198.364C82.4063 182.574 93.9932 167.078 106.216 152.061C124.818 129.208 144.796 107.468 164.723 85.7807C172.385 77.4425 180.04 69.1123 187.606 60.7299C194.017 53.6268 200.126 46.0633 206.282 38.442C207.918 36.4159 209.558 34.3857 211.207 32.359C216.2 26.2252 221.275 20.1332 226.593 14.3302C224.916 15.6578 223.142 17.0663 221.294 18.5348C219.916 19.6305 218.497 20.7593 217.047 21.9122Z" fill="#2B2433"/>
</svg>
