<svg width="138" height="67" viewBox="0 0 138 67" fill="none" xmlns="http://www.w3.org/2000/svg">
<g clip-path="url(#clip0_65_113)">
<path fill-rule="evenodd" clip-rule="evenodd" d="M3.48616 26.302C4.01955 25.542 5.08355 25.3532 5.86267 25.8801C9.99984 28.6782 12.6836 33.0648 15.1634 37.1181C15.3676 37.4518 15.5703 37.7832 15.7724 38.1113C18.5219 42.5752 21.1971 46.5452 25.4501 48.7991C26.2826 49.2403 26.5963 50.2568 26.1508 51.0695C25.7053 51.8822 24.6693 52.1834 23.8368 51.7422C18.6559 48.9965 15.5611 44.2344 12.8474 39.8284C12.6707 39.5417 12.4958 39.2566 12.3221 38.9736C9.7359 34.76 7.42517 30.9951 3.9311 28.632C3.15198 28.1051 2.95277 27.0619 3.48616 26.302Z" fill="#EB74A3"/>
<path fill-rule="evenodd" clip-rule="evenodd" d="M40.431 16.8769C40.9644 16.117 42.0284 15.9281 42.8075 16.4551C43.4348 16.8793 43.9638 17.4941 44.4053 18.1221C44.8605 18.7695 45.2942 19.5349 45.7014 20.3594C46.5162 22.0093 47.2814 24.0117 47.9338 26.0423C48.5879 28.0779 49.1411 30.1811 49.5227 32.0464C49.8968 33.8758 50.1311 35.5948 50.0851 36.812C50.0502 37.7358 49.257 38.4526 48.3134 38.4129C47.3698 38.3731 46.6332 37.592 46.6682 36.6681C46.6987 35.861 46.5333 34.4606 46.1701 32.6853C45.8144 30.946 45.2927 28.9594 44.6728 27.0301C44.0513 25.0957 43.3435 23.2581 42.6249 21.8029C42.2654 21.0749 41.9172 20.4715 41.5929 20.0101C41.2548 19.5292 41.0064 19.2952 40.8759 19.207C40.0968 18.68 39.8976 17.6368 40.431 16.8769Z" fill="#EB74A3"/>
<path fill-rule="evenodd" clip-rule="evenodd" d="M78.5545 10.0564C79.4899 10.1879 80.144 11.0365 80.0153 11.9518L76.6061 36.2097C76.4774 37.1251 75.6149 37.7605 74.6795 37.6291C73.744 37.4976 73.09 36.649 73.2187 35.7337L76.6279 11.4757C76.7566 10.5604 77.6191 9.92493 78.5545 10.0564Z" fill="#EB74A3"/>
<path fill-rule="evenodd" clip-rule="evenodd" d="M105.663 27.1797C106.546 26.8817 107.018 25.9402 106.716 25.0681C106.413 24.1906 105.442 23.7158 104.548 24.0075C103.631 24.3068 102.952 25.0278 102.501 25.5947C102.006 26.2164 101.546 26.9654 101.137 27.6827C100.862 28.1662 100.583 28.6821 100.325 29.1616C100.203 29.3879 100.085 29.6061 99.9742 29.809C99.6055 30.483 99.3063 30.9965 99.0601 31.3319C98.4494 32.1641 97.6716 32.8071 96.72 33.5939C96.3925 33.8646 96.0445 34.1524 95.6756 34.4707C94.3408 35.6225 92.87 37.0969 92.2615 39.3246C92.0178 40.2166 92.5598 41.1374 93.472 41.3814C94.3842 41.6254 95.3213 41.1001 95.5649 40.2081C95.9046 38.9649 96.7326 38.0349 97.9446 36.9891C98.1793 36.7866 98.4396 36.5723 98.7146 36.3459C99.7352 35.5058 100.96 34.4978 101.841 33.2971C102.233 32.762 102.627 32.0681 102.99 31.4038C103.121 31.1643 103.249 30.927 103.376 30.6912C103.624 30.2322 103.868 29.7792 104.125 29.3282C104.511 28.6513 104.87 28.081 105.202 27.6643C105.511 27.2755 105.673 27.1826 105.67 27.1781C105.67 27.1776 105.667 27.1783 105.663 27.1797Z" fill="#EB74A3"/>
<path fill-rule="evenodd" clip-rule="evenodd" d="M133.459 48.2876C133.561 49.2075 132.883 50.0298 131.944 50.1243C129.451 50.3752 127.009 51.2107 124.367 52.1147C123.84 52.295 123.305 52.478 122.76 52.6597C119.61 53.71 116.143 54.7005 112.568 54.198C111.632 54.0666 110.978 53.218 111.107 52.3026C111.236 51.3873 112.098 50.7518 113.034 50.8833C115.723 51.2613 118.497 50.5368 121.641 49.4889C122.123 49.3283 122.615 49.1591 123.116 48.9869C125.755 48.0806 128.644 47.0879 131.574 46.793C132.513 46.6985 133.357 47.3677 133.459 48.2876Z" fill="#EB74A3"/>
</g>
<defs>
<clipPath id="clip0_65_113">
<rect width="132" height="49" fill="white" transform="translate(7) rotate(8)"/>
</clipPath>
</defs>
</svg>
