<svg width="635" height="251" viewBox="0 0 635 251" fill="none" xmlns="http://www.w3.org/2000/svg">
<path d="M73.3525 2C57.9602 2.45271 48.8208 6.63025 37.3892 17.4439C22.2162 31.7967 5.8382 47.9487 2.51353 69.4312C2.08729 72.1853 0.688278 78.6868 2.151 81.6123C5.57477 88.4598 22.4952 88.9393 28.1084 89.298C53.4444 90.9167 79.4311 87.1047 104.53 84.2225C134.872 80.7383 164.871 75.0725 195.164 71.3163C245.926 65.0221 297.73 65.6946 347.79 76.9718C350.724 77.6328 389.856 90.4052 376.865 97.4912C359.245 107.102 332.184 106.072 313.277 107.787C275.992 111.169 238.734 114.399 201.544 118.736C176.675 121.636 151.632 124.294 127.08 129.322C113.848 132.031 99.0818 135.199 88.8689 144.766C83.7786 149.534 79.0816 156.323 77.9929 163.4C76.5405 172.84 86.3544 176.5 93.5093 179.061C146.092 197.882 208.023 189.812 262.16 183.992C337.477 175.894 411.509 168.857 487.365 171.738C515.445 172.804 543.25 174.601 571.038 178.916C588.957 181.699 607.884 183.821 625.273 189.212C628.099 190.088 634.748 193.163 632.234 194.723C620.465 202.022 600.764 202.53 587.714 204.293C532.053 211.815 475.913 211.963 419.934 215.024C405.725 215.801 385.231 219.1 380.926 235.761C378.626 244.66 395.204 246.947 400.937 248.668" stroke="#2B2433" stroke-width="3" stroke-linecap="round"/>
</svg>
