<svg width="192" height="465" viewBox="0 0 192 465" fill="none" xmlns="http://www.w3.org/2000/svg">
<path fill-rule="evenodd" clip-rule="evenodd" d="M55.831 0.267701C56.1791 -0.117569 56.7153 -0.0828669 57.0286 0.345211C57.5273 1.02656 58.0211 1.70365 58.5118 2.37643C63.0878 8.65068 67.3898 14.5493 72.8034 20.0228C73.0175 20.2393 73.2408 20.4644 73.4721 20.6975C75.6098 22.8524 78.4306 25.6957 80.9799 28.7846C83.78 32.1774 86.3768 36.0093 87.3198 39.6815C90.0572 50.3406 91.9939 59.783 88.36 70.9541C85.8338 78.7201 79.7161 84.7068 72.9893 89.3212C66.2363 93.9536 58.7075 97.3097 53.1608 99.717C50.6293 100.816 47.9406 101.883 45.1703 102.983C40.1542 104.975 34.8703 107.073 29.767 109.655C21.873 113.647 14.6257 118.703 9.852 126.041C1.99578 138.116 -0.0555547 157.191 3.13814 172.114C4.52183 178.58 9.28128 182.452 15.0871 185.014C19.4065 186.92 24.1141 188.024 28.138 188.968C29.5187 189.292 30.8188 189.597 31.9952 189.909C47.3215 193.974 61.6788 199.615 71.9155 215C77.1012 222.794 80.1924 231.246 78.1169 241.738C77.1272 246.741 75.273 252.392 72.7595 257.511C70.2498 262.622 67.0487 267.271 63.3361 270.193C60.2404 272.629 56.9925 275.044 53.6902 277.499C45.3045 283.733 36.5687 290.227 29.0866 297.999C18.7005 308.789 10.8961 321.89 10.0364 339.862C9.73 346.266 11.4072 353.141 14.4683 358.953C17.5291 364.765 21.9306 369.434 27.0005 371.512C33.0188 373.979 39.1434 373.921 45.3764 373.194C47.4426 372.953 49.5358 372.635 51.6411 372.316C55.8222 371.681 60.0507 371.04 64.2096 370.978C65.9298 370.952 67.7195 370.885 69.5528 370.816C74.571 370.627 79.9165 370.426 85.0617 371.038C92.1162 371.876 98.965 374.252 104.351 380.393C112.354 389.519 118.082 400.791 123.724 411.952L123.886 412.273C129.491 423.364 135.032 434.327 142.684 443.262C155.278 457.968 173.947 462.486 191.152 462.486C191.62 462.486 192 462.953 192 463.529C192 464.104 191.62 464.571 191.152 464.571C173.785 464.571 154.579 460.028 141.516 444.774C133.705 435.654 128.066 424.496 122.497 413.476L122.283 413.053C116.624 401.857 111.008 390.828 103.198 381.922C98.1968 376.22 91.7724 373.931 84.8985 373.113C79.8694 372.516 74.6907 372.711 69.7057 372.898C67.8476 372.968 66.0165 373.037 64.23 373.063C60.1601 373.124 56.1014 373.741 51.9814 374.367C49.8528 374.691 47.7078 375.017 45.5364 375.27C39.2253 376.006 32.819 376.096 26.4642 373.491C20.9591 371.234 16.2707 366.212 13.0447 360.087C9.81903 353.962 8.01248 346.654 8.34324 339.739C9.24035 320.986 17.4087 307.4 27.9921 296.406C35.5836 288.52 44.5035 281.889 52.9301 275.624C56.2041 273.19 59.4036 270.812 62.4219 268.436C65.8407 265.746 68.8776 261.382 71.3076 256.433C73.7337 251.492 75.5208 246.038 76.4689 241.245C78.3697 231.636 75.6088 223.844 70.6029 216.321C60.7569 201.523 46.9087 195.998 31.6376 191.948C30.531 191.654 29.2795 191.361 27.9319 191.045C23.885 190.096 18.9715 188.944 14.5142 186.977C8.57713 184.357 3.10469 180.153 1.49793 172.645C-1.80219 157.224 0.268426 137.433 8.52761 124.738C13.5716 116.985 21.1401 111.763 29.1218 107.726C34.2755 105.119 39.6916 102.967 44.7548 100.956C47.5057 99.8625 50.1525 98.811 52.5964 97.7503C58.1461 95.3417 65.5501 92.0362 72.163 87.4999C78.802 82.9457 84.4831 77.257 86.7853 70.1795C90.1807 59.7414 88.4298 50.9295 85.7025 40.3095C84.8952 37.1659 82.5729 33.6428 79.7895 30.2701C77.2991 27.2526 74.5388 24.4698 72.3956 22.3092C72.1649 22.0767 71.9415 21.8514 71.7262 21.6338C66.2076 16.0541 61.8199 10.0372 57.255 3.77712C56.7619 3.10097 56.2668 2.42198 55.768 1.7404C55.4547 1.31232 55.4829 0.652971 55.831 0.267701Z" fill="#EB74A3"/>
</svg>
