<svg width="36" height="70" viewBox="0 0 36 70" fill="none" xmlns="http://www.w3.org/2000/svg">
<g clip-path="url(#clip0_64_1306)">
<path fill-rule="evenodd" clip-rule="evenodd" d="M20.9073 66.7316C20.6894 67.4239 21.0056 68.1906 21.6807 68.5213C22.4262 68.8865 23.3272 68.5817 23.693 67.8404C23.9652 67.289 23.9278 66.6889 23.8923 66.3574C23.8489 65.9523 23.75 65.5103 23.6313 65.0763C23.3922 64.2024 23.0207 63.1767 22.6366 62.1924C22.2674 61.2462 21.8706 60.2984 21.5406 59.51L21.4936 59.3978C21.1364 58.5444 20.9017 57.9761 20.825 57.7343C19.7954 54.4849 18.5809 51.4991 17.4208 48.6469C16.9817 47.5674 16.5503 46.507 16.1398 45.4587C14.6294 41.6023 13.3509 37.801 12.7691 33.4297C12.1729 28.9496 12.3959 23.603 12.8324 18.1295C12.9808 16.2684 13.1549 14.3841 13.327 12.5218C13.6541 8.98214 13.9738 5.52199 14.0956 2.45146C14.1283 1.62579 13.4822 0.928956 12.6523 0.895048C11.8225 0.86114 11.1233 1.503 11.0905 2.32867C10.9716 5.32649 10.6647 8.64371 10.3425 12.1259C10.1685 14.0066 9.99005 15.9354 9.83435 17.8881C9.39635 23.3812 9.14655 29 9.78776 33.8179C10.4162 38.5394 11.7943 42.6004 13.3378 46.5415C13.7768 47.6623 14.2254 48.7652 14.6743 49.8687C15.8192 52.6834 16.9657 55.5019 17.957 58.63C18.0839 59.0306 18.3866 59.7537 18.7065 60.518L18.7612 60.6486C19.0937 61.443 19.4778 62.3605 19.8333 63.2717C20.2074 64.2302 20.5327 65.1388 20.7295 65.8581C20.8288 66.2207 20.8826 66.49 20.9018 66.6695C20.9044 66.6938 20.9061 66.7144 20.9073 66.7316ZM20.9093 66.7846C20.9093 66.7966 20.9088 66.8021 20.9085 66.8018C20.9082 66.8016 20.9082 66.7956 20.9093 66.7846Z" fill="#EB74A3"/>
<path fill-rule="evenodd" clip-rule="evenodd" d="M22.0093 64.6525C22.0482 64.4103 22.0889 64.157 22.1317 63.926C22.8448 60.076 24.7297 55.334 28.2014 52.8225C28.8726 52.337 29.8132 52.4854 30.3022 53.1541C30.7913 53.8228 30.6436 54.7584 29.9724 55.244C27.4239 57.0876 25.7494 60.9094 25.0893 64.473C25.0534 64.6672 25.0177 64.8891 24.9764 65.1458L24.9764 65.1461C24.9363 65.3958 24.8916 65.6736 24.8413 65.9507C24.7452 66.4793 24.6088 67.1244 24.3834 67.6641C24.2711 67.9332 24.0979 68.2732 23.8211 68.5683C23.5251 68.8839 23.0522 69.2026 22.4115 69.2224C21.8059 69.241 21.3195 68.9824 20.989 68.731C20.6558 68.4776 20.364 68.1448 20.1025 67.7872C19.9074 67.5205 19.7108 67.25 19.5125 66.977C17.9062 64.767 16.1847 62.3984 14.2056 60.5679C11.9976 58.5256 9.72176 57.3919 7.20863 57.7524C6.38684 57.8703 5.62354 57.3028 5.50375 56.4849C5.38397 55.667 5.95306 54.9083 6.77486 54.7905C10.5899 54.2432 13.7445 56.059 16.2513 58.3775C18.4503 60.4114 20.3449 63.0158 21.9215 65.188C21.9506 65.0177 21.9784 64.8447 22.0067 64.6688L22.0093 64.6525Z" fill="#EB74A3"/>
</g>
<defs>
<clipPath id="clip0_64_1306">
<rect width="36" height="70" fill="white"/>
</clipPath>
</defs>
</svg>
