<svg width="341" height="508" viewBox="0 0 341 508" fill="none" xmlns="http://www.w3.org/2000/svg">
<path d="M2 434.666C2 424.849 2.5672 414.665 4.82402 405.102C7.36761 394.324 13.7001 384.496 16.5908 373.609C20.4428 359.1 23.8944 344.751 28.8282 330.54C33.1383 318.126 32.716 304.248 37.3003 292.06C42.3003 278.767 46.0543 266.337 43.4713 252.172C41.9898 244.048 36.8296 237.755 36.8296 229.074C36.8296 220.416 38.4225 213.966 43.0006 206.497C46.5243 200.748 51.3776 195.81 54.5582 189.864C56.5824 186.08 57.3239 181.576 58.9511 177.611C60.6708 173.42 61.5584 169.017 63.6578 164.941C65.9164 160.555 68.9284 156.568 71.1362 152.166C73.6225 147.208 76.275 139.916 80.5497 136.263C81.5403 135.416 80.9771 133.6 81.0726 132.457C81.7527 124.32 84.4599 115.733 87.4005 108.159C89.9331 101.636 93.6879 95.2649 96.6048 88.8669C98.078 85.6354 95.2394 82.8016 94.2514 79.8465C92.4174 74.3609 89.098 69.0436 86.25 63.9956C82.8885 58.0375 86.9379 57.2649 92.7871 56.4873C98.0479 55.788 103.04 60.2947 107.535 62.5357C112.296 64.9091 115.686 67.3779 119.249 70.9304C124.922 76.5859 123.433 71.1328 123.433 65.612C123.433 55.0455 125.048 44.6438 125.316 34.1188C125.483 27.5289 125.262 14.8129 130.022 9.5083C132.928 6.27096 138.753 4.81561 143.201 4.81561C147.548 4.81561 151.949 2.93854 156.38 2.93854C162.741 2.93854 169.017 2 175.416 2C183.098 2 184.799 9.13968 188.176 14.931C190.888 19.5815 188.408 25.6166 189.536 30.6775C190.954 37.038 191.376 43.133 189.536 49.6568C188.704 52.6079 188.076 62.4904 189.536 64.6734C191.023 66.8969 188.54 73.5183 192.151 73.3288C196.849 73.0823 199.547 67.2508 203.447 65.0906C206.463 63.4202 212.06 61.904 215.475 63.2135C220.083 64.9804 219.45 71.6131 219.45 75.4145C219.45 83.4548 217.567 91.0693 217.567 99.1908C217.567 105.969 217.567 112.747 217.567 119.526C217.567 124.392 219.235 126.563 223.633 127.816C227.525 128.925 227.922 135.489 227.922 138.505C227.922 140.879 226.566 142.061 226.091 144.188C225.566 146.546 231.217 151.499 232.681 153.105C240.465 161.642 246.237 170.095 255.796 176.724C263.758 182.247 269.65 190.764 276.872 197.164C278.731 198.812 286.809 202.409 287.174 204.411C287.985 208.858 288.962 212.582 290.469 216.873C292.661 223.119 292.946 231.594 290.573 237.677C287.697 245.051 291.398 254.105 288.691 261.818C284.812 272.866 292.765 290.01 295.646 300.351C301.48 321.29 311.854 339.513 320.121 359.531C323.542 367.814 327.918 377.348 328.593 386.435C329.107 393.356 328.645 400.457 328.645 407.396C328.645 413.201 328.645 419.006 328.645 424.811C328.645 430.375 330.623 432.613 333.3 437.116C338.752 446.289 339 460.638 339 471.217C339 476.845 333.492 478.184 329.587 481.645C316.584 493.168 298.077 492.855 281.631 492.855C275.508 492.855 268.469 493.612 263.693 489.101C262.18 487.672 253.139 479.633 250.723 481.801C246.918 485.216 243.385 489.872 238.486 491.917C233.192 494.126 228.396 494.732 222.692 494.732C217.407 494.732 210.012 492.582 205.33 490.248C200.917 488.048 200.649 486.627 195.393 489.101C192.138 490.633 188.141 491.564 185.561 494.211C183.81 496.009 183.006 499.31 180.855 500.572C178.147 502.16 177.218 504.203 173.847 505.056C169.605 506.129 165.419 505.995 161.087 505.995C153.155 505.995 146.857 504.522 141.109 499.216C137.354 495.749 134.008 491.068 128.663 490.248C122.037 489.232 115.517 490.499 108.894 489.101C96.4039 486.464 85.6764 478.777 72.8097 478.777C64.3234 478.777 55.5668 479.415 47.1844 478.047C36.4897 476.302 30.3333 469.818 23.6508 461.675C18.4406 455.326 10.781 449.315 7.85723 441.444C6.5864 438.023 3.13869 436.195 2 432.789" stroke="#5EBC4E" stroke-width="3" stroke-linecap="round"/>
</svg>
