<svg width="24" height="25" viewBox="0 0 24 25" fill="none" xmlns="http://www.w3.org/2000/svg">
<g clip-path="url(#clip0_753_1806)">
<path fill-rule="evenodd" clip-rule="evenodd" d="M14.4002 0.77124H16.0002V2.37124C16.0002 4.06863 16.6745 5.69649 17.8747 6.89672C19.0749 8.09696 20.7028 8.77124 22.4002 8.77124V10.3712C21.1581 10.3722 19.9328 10.0835 18.8218 9.52801C17.7108 8.97251 16.7447 8.16555 16.0002 7.17124V18.3712C16.0002 19.637 15.6248 20.8744 14.9216 21.9269C14.2184 22.9794 13.2188 23.7997 12.0494 24.2841C10.8799 24.7685 9.5931 24.8952 8.35162 24.6483C7.11014 24.4013 5.96977 23.7918 5.07471 22.8967C4.17966 22.0017 3.57012 20.8613 3.32317 19.6198C3.07623 18.3783 3.20297 17.0915 3.68737 15.9221C4.17177 14.7526 4.99207 13.7531 6.04455 13.0498C7.09702 12.3466 8.3344 11.9712 9.6002 11.9712V13.5712C8.65085 13.5712 7.72282 13.8528 6.93346 14.3802C6.1441 14.9076 5.52888 15.6573 5.16558 16.5344C4.80228 17.4114 4.70722 18.3766 4.89243 19.3077C5.07764 20.2388 5.53479 21.0941 6.20608 21.7654C6.87738 22.4366 7.73265 22.8938 8.66376 23.079C9.59487 23.2642 10.56 23.1692 11.4371 22.8059C12.3142 22.4426 13.0638 21.8273 13.5912 21.038C14.1187 20.2486 14.4002 19.3206 14.4002 18.3712V0.77124Z" fill="#2B2433"/>
</g>
<defs>
<clipPath id="clip0_753_1806">
<rect width="24" height="24" fill="white" transform="translate(0 0.77124)"/>
</clipPath>
</defs>
</svg>
