<svg width="24" height="25" viewBox="0 0 24 25" fill="none" xmlns="http://www.w3.org/2000/svg">
<g clip-path="url(#clip0_753_1802)">
<path d="M6.60763 2.07825H17.3926C20.3202 2.07825 22.6931 4.45143 22.6931 7.37925V18.1632C22.6931 21.091 20.3198 23.4642 17.3921 23.4642H6.60813C3.68041 23.4642 1.30713 21.091 1.30713 18.1632V7.37925C1.30713 4.45143 3.68002 2.07825 6.60763 2.07825Z" stroke="#2B2433" stroke-width="2" stroke-miterlimit="10"/>
<path d="M12 18.4163C15.1176 18.4163 17.645 15.8889 17.645 12.7713C17.645 9.6536 15.1176 7.12625 12 7.12625C8.88233 7.12625 6.35498 9.6536 6.35498 12.7713C6.35498 15.8889 8.88233 18.4163 12 18.4163Z" stroke="#2B2433" stroke-width="2" stroke-miterlimit="10"/>
<path d="M18.8545 7.12624C19.5225 7.12624 20.064 6.58473 20.064 5.91675C20.064 5.24876 19.5225 4.70724 18.8545 4.70724C18.1865 4.70724 17.645 5.24876 17.645 5.91675C17.645 6.58473 18.1865 7.12624 18.8545 7.12624Z" fill="#2B2433"/>
</g>
<defs>
<clipPath id="clip0_753_1802">
<rect width="24" height="24" fill="white" transform="translate(0 0.77124)"/>
</clipPath>
</defs>
</svg>
