<svg width="202" height="98" viewBox="0 0 202 98" fill="none" xmlns="http://www.w3.org/2000/svg">
<path d="M76.5552 14.3011C94.9095 14.3011 113.081 14.7352 131.206 17.784C142.051 19.6082 152.796 21.8342 163.602 23.8469C170.702 25.1694 180.294 25.4282 186.647 29.1359C190.705 31.5036 187.579 47.4603 186.779 51.1946C185.503 57.1481 184.621 63.2527 180.326 67.9644C170.58 78.6571 154.769 84.5315 140.951 87.8301C129.523 90.5583 117.773 91.6357 106.251 93.893C93.9024 96.3123 80.4469 97.8355 67.9954 95.312C48.1304 91.286 33.1866 77.2899 18.7436 64.7394C-6.02696 43.2145 46.5636 20.5912 62.7278 15.591C77.4088 11.0497 94.0705 13.1401 109.28 13.1401C126.809 13.1401 144.241 12.2267 161.1 17.8485C169.914 20.7878 177.043 24.7635 184.409 29.9744C189.138 33.3205 198.631 44.2635 198.631 50.5496C198.631 54.8764 195.546 57.4812 192.178 59.8375C183.905 65.6261 174.877 71.0125 165.709 75.3173C150.964 82.2408 136.074 89.7651 119.354 89.7651C105.184 89.7651 89.9945 91.2399 76.0943 88.4106C64.9184 86.1358 54.1278 81.4323 43.172 78.2842C34.8026 75.8794 25.9251 74.3827 17.8218 71.1893C10.8795 68.4535 -1.63383 61.945 1.49235 52.8716C3.97582 45.6635 13.2259 39.0371 19.2704 35.0698C33.5651 25.6873 49.4526 18.7549 65.625 13.1401C96.4694 2.43125 131.166 5.93507 163.207 7.27064C177.534 7.86785 203.908 14.2467 200.738 32.8768C199.733 38.7855 197.852 48.4664 192.705 52.3556C185.931 57.4748 174.686 58.63 166.565 60.0955C160.661 61.1609 154.601 60.6044 148.655 61.45C138.805 62.8506 128.678 65.1058 119.091 67.7064C101.998 72.343 85.2706 73.324 67.2711 73.9628C49.879 74.5801 22.3678 75.0912 13.937 56.0965C10.5873 48.5496 6.04099 32.8563 9.52539 24.7499C14.4759 13.2328 29.363 7.48161 40.7357 4.11018C54.0295 0.169281 69.7616 0.797291 83.6006 1.59471C91.6409 2.05801 99.3126 5.57914 107.436 6.10966C113.313 6.49341 119.82 5.88612 125.149 8.49613" stroke="#2B2433" stroke-linecap="round"/>
</svg>
