<svg width="47" height="116" viewBox="0 0 47 116" fill="none" xmlns="http://www.w3.org/2000/svg">
<path fill-rule="evenodd" clip-rule="evenodd" d="M46.2517 78.5061C46.3154 83.9144 44.8579 89.7561 43.3232 92.8608C41.3323 96.8881 37.9201 100.254 34.6445 103.484C34.478 103.649 34.3119 103.812 34.1463 103.976C30.672 107.408 27.4399 110.72 25.8673 114.67C25.7056 115.076 25.2451 115.274 24.8388 115.112C24.4326 114.951 24.2344 114.49 24.3961 114.084C26.1112 109.777 29.5992 106.242 33.0334 102.85C33.1768 102.708 33.3202 102.566 33.4633 102.425C36.799 99.1333 40.0345 95.9402 41.9036 92.159C43.3185 89.2969 44.7293 83.7051 44.6683 78.5247C44.6379 75.9394 44.2409 73.5232 43.3458 71.6226C42.4608 69.7433 41.1026 68.3883 39.1093 67.8168C37.3789 67.3206 35.7687 66.9305 34.234 66.6582C33.8831 69.6321 32.9652 72.6849 32.0233 75.8173C31.7544 76.7117 31.4835 77.6125 31.2234 78.5198C30.414 81.3424 28.935 84.514 26.7526 86.7526C24.542 89.02 21.5625 90.3613 17.9041 89.3123C17.6077 89.2273 17.3004 89.1449 16.988 89.0612C15.811 88.7456 14.5609 88.4105 13.5424 87.8417C12.8699 87.4662 12.2576 86.9724 11.7833 86.2855C11.3085 85.5978 11.0002 84.7573 10.877 83.7292C10.754 82.7035 10.8578 81.3143 11.1161 79.8191C11.3769 78.3098 11.8048 76.638 12.3641 75.0276C12.9224 73.4199 13.6195 71.8503 14.4271 70.5564C15.2226 69.2819 16.1819 68.1829 17.3025 67.6452C21.2483 65.7519 24.7257 64.8036 28.2822 64.6428C29.7666 64.5756 31.2562 64.6461 32.7898 64.8377C32.9126 61.4749 32.1023 58.2205 29.4587 54.8666C26.2759 50.8287 22.586 47.2301 18.8158 43.6194C18.5412 43.3564 18.2661 43.0933 17.9908 42.8299C14.4983 39.4895 10.9651 36.1102 7.79854 32.3776C6.50737 30.8557 5.36397 28.5829 4.40299 25.9765C3.43693 23.3562 2.63451 20.3412 2.0505 17.2892C1.46643 14.2368 1.0978 11.1317 1.00552 8.3291C0.913664 5.53942 1.09356 2.99712 1.63856 1.09647C1.75909 0.676135 2.19755 0.433094 2.61788 0.553622C3.03822 0.674152 3.28125 1.11261 3.16072 1.53294C2.6819 3.20282 2.49856 5.55543 2.58817 8.27699C2.67735 10.9856 3.03489 14.0081 3.6058 16.9916C4.17676 19.9754 4.95812 22.9046 5.88874 25.4287C6.82443 27.9666 7.89063 30.0384 9.00605 31.3532C12.1168 35.02 15.5923 38.3444 19.0966 41.6964C19.368 41.956 19.6395 42.2157 19.9111 42.4758C23.6775 46.0829 27.4427 49.751 30.7023 53.8863C33.6539 57.631 34.5346 61.3203 34.3648 65.0734C36.0136 65.3592 37.7255 65.7726 39.5458 66.2946C42.0638 67.0166 43.7406 68.7444 44.7784 70.9479C45.8062 73.1303 46.2198 75.7971 46.2517 78.5061ZM32.6678 66.4184C31.1851 66.2293 29.7619 66.161 28.3537 66.2247C25.0518 66.374 21.783 67.2517 17.9876 69.0729C17.2712 69.4166 16.5094 70.211 15.7704 71.3949C15.0436 72.5593 14.3926 74.0131 13.86 75.547C13.3282 77.0782 12.9222 78.6665 12.6765 80.0887C12.4283 81.5249 12.3531 82.7388 12.4492 83.5408C12.5467 84.3545 12.7795 84.9414 13.0864 85.3858C13.3938 85.831 13.8038 86.174 14.3144 86.4592C15.1441 86.9225 16.1353 87.1896 17.2782 87.4975C17.6189 87.5893 17.9731 87.6848 18.3406 87.7901C21.3071 88.6408 23.7096 87.6054 25.6187 85.6471C27.556 83.66 28.9345 80.757 29.7012 78.0834C29.9767 77.1227 30.2578 76.1868 30.5327 75.2714C31.4736 72.1387 32.3426 69.2456 32.6678 66.4184Z" fill="#EB74A3"/>
</svg>
