<svg width="62" height="130" viewBox="0 0 62 130" fill="none" xmlns="http://www.w3.org/2000/svg">
<path fill-rule="evenodd" clip-rule="evenodd" d="M47.9597 129.984C47.3592 129.917 46.9267 129.375 46.9937 128.775C47.2779 126.228 48.4966 121.57 49.2332 119.239C49.8121 117.406 50.1055 115.482 50.3809 113.494C50.4048 113.321 50.4287 113.147 50.4526 112.972C50.6993 111.175 50.9538 109.321 51.427 107.567C52.8574 102.263 51.8823 95.7963 49.1614 90.061C49.0594 89.8462 48.9552 89.6327 48.8487 89.4205C47.7034 91.1515 46.4347 92.759 45.0384 93.9781C43.2759 95.5168 41.1951 96.5312 38.8438 96.2259C37.5794 96.0617 36.2348 96.1494 34.7944 96.327C34.2704 96.3916 33.7134 96.4715 33.1436 96.5533C32.2181 96.6861 31.259 96.8237 30.3531 96.9083C27.3159 97.192 24.0875 96.9845 21.302 94.3026C19.8554 92.9098 18.0986 90.8333 16.9074 88.5283C15.7304 86.2507 14.9992 83.5355 15.9878 81.0174C17.694 76.6716 21.6371 74.5984 25.7744 73.9332C29.9021 73.2696 34.4224 73.9596 37.7158 75.3263C42.2074 77.1901 46.0482 80.7816 48.8915 85.1175C49.7912 83.5056 50.62 81.8638 51.3832 80.3491L51.4568 80.2031C52.4572 78.2173 53.3787 76.3882 54.1768 75.268C63.1608 62.6596 58.6019 47.1242 48.6444 36.0653C44.8912 31.897 40.5958 30.2976 35.1862 28.4726C32.8698 27.6911 30.6093 26.689 28.4107 25.7143C28.1177 25.5844 27.8258 25.455 27.535 25.3267C25.0394 24.2253 22.6136 23.197 20.1444 22.5232C9.55566 19.6334 4.52196 11.1749 0.507212 1.97023C0.265644 1.41639 0.518791 0.771575 1.07264 0.53001C1.62647 0.288445 2.27128 0.541597 2.51285 1.09543C6.49147 10.2173 11.1704 17.806 20.7205 20.4123C23.3642 21.1337 25.9238 22.2238 28.4185 23.3248C28.7132 23.4549 29.0069 23.585 29.2997 23.7148C31.5087 24.6938 33.6716 25.6523 35.8856 26.3993C41.2974 28.225 46.0985 29.9677 50.2705 34.6012C60.5746 46.0451 65.7895 62.7411 55.9588 76.5378C55.2632 77.5141 54.4052 79.2141 53.3373 81.3337C52.4139 83.1662 51.3601 85.2552 50.1853 87.2645C50.5221 87.8743 50.8401 88.4946 51.1383 89.1231C54.0193 95.1957 55.1396 102.204 53.5396 108.136C53.1047 109.749 52.8687 111.465 52.6178 113.29C52.5948 113.457 52.5717 113.625 52.5483 113.794C52.2736 115.778 51.9605 117.869 51.3197 119.898C50.5948 122.192 49.4284 126.687 49.1683 129.018C49.1013 129.618 48.5602 130.051 47.9597 129.984ZM47.6452 87.2422C44.9376 82.7717 41.1824 79.1338 36.8772 77.3473C33.9332 76.1257 29.8226 75.4986 26.1218 76.0936C22.4305 76.687 19.3472 78.4481 18.0246 81.817C17.3776 83.465 17.786 85.4623 18.8513 87.5237C19.9024 89.5577 21.4907 91.4468 22.8197 92.7264C24.9213 94.7498 27.3494 94.9912 30.1496 94.7297C31.0228 94.6481 31.8622 94.5269 32.7312 94.4014C33.3103 94.3178 33.9025 94.2322 34.5266 94.1553C36.0217 93.971 37.5845 93.8559 39.1256 94.056C40.6223 94.2504 42.0976 93.6408 43.5993 92.3298C45.0313 91.0796 46.3823 89.2781 47.6452 87.2422Z" fill="#EB74A3"/>
</svg>
